<mxfile host="app.diagrams.net" agent="Mozilla/5.0 (Windows NT 10.0; Win64; x64) AppleWebKit/537.36 (KHTML, like Gecko) Chrome/137.0.0.0 Safari/537.36" version="27.1.4">
  <diagram name="Page-1" id="c4acf3e9-155e-7222-9cf6-157b1a14988f">
    <mxGraphModel dx="1757" dy="826" grid="1" gridSize="10" guides="1" tooltips="1" connect="1" arrows="1" fold="1" page="1" pageScale="1" pageWidth="850" pageHeight="1100" background="none" math="0" shadow="0">
      <root>
        <mxCell id="0" />
        <mxCell id="1" parent="0" />
        <mxCell id="62pQtbpUNrZcGYcg5-YU-1" value="«component»&lt;br&gt;&lt;b&gt;Parque&lt;/b&gt;" style="html=1;dropTarget=0;whiteSpace=wrap;" parent="1" vertex="1">
          <mxGeometry x="330" y="270" width="180" height="90" as="geometry" />
        </mxCell>
        <mxCell id="62pQtbpUNrZcGYcg5-YU-2" value="" style="shape=module;jettyWidth=8;jettyHeight=4;" parent="62pQtbpUNrZcGYcg5-YU-1" vertex="1">
          <mxGeometry x="1" width="20" height="20" relative="1" as="geometry">
            <mxPoint x="-27" y="7" as="offset" />
          </mxGeometry>
        </mxCell>
        <mxCell id="62pQtbpUNrZcGYcg5-YU-5" value="" style="rounded=0;orthogonalLoop=1;jettySize=auto;html=1;endArrow=halfCircle;endFill=0;endSize=6;strokeWidth=1;sketch=0;exitX=0.75;exitY=0;exitDx=0;exitDy=0;" parent="1" source="62pQtbpUNrZcGYcg5-YU-20" target="62pQtbpUNrZcGYcg5-YU-7" edge="1">
          <mxGeometry relative="1" as="geometry">
            <mxPoint x="375" y="420" as="sourcePoint" />
          </mxGeometry>
        </mxCell>
        <mxCell id="62pQtbpUNrZcGYcg5-YU-6" value="" style="rounded=0;orthogonalLoop=1;jettySize=auto;html=1;endArrow=oval;endFill=0;sketch=0;sourcePerimeterSpacing=0;targetPerimeterSpacing=0;endSize=10;exitX=0.25;exitY=1;exitDx=0;exitDy=0;" parent="1" source="62pQtbpUNrZcGYcg5-YU-1" target="62pQtbpUNrZcGYcg5-YU-7" edge="1">
          <mxGeometry relative="1" as="geometry">
            <mxPoint x="370" y="415" as="sourcePoint" />
          </mxGeometry>
        </mxCell>
        <mxCell id="62pQtbpUNrZcGYcg5-YU-7" value="" style="ellipse;whiteSpace=wrap;html=1;align=center;aspect=fixed;fillColor=none;strokeColor=none;resizable=0;perimeter=centerPerimeter;rotatable=0;allowArrows=0;points=[];outlineConnect=1;" parent="1" vertex="1">
          <mxGeometry x="370" y="380" width="10" height="10" as="geometry" />
        </mxCell>
        <mxCell id="62pQtbpUNrZcGYcg5-YU-8" value="Funcionalidades do parque" style="text;html=1;align=center;verticalAlign=middle;resizable=0;points=[];autosize=1;strokeColor=none;fillColor=none;" parent="1" vertex="1">
          <mxGeometry x="200" y="370" width="170" height="30" as="geometry" />
        </mxCell>
        <mxCell id="62pQtbpUNrZcGYcg5-YU-11" value="" style="ellipse;whiteSpace=wrap;html=1;align=center;aspect=fixed;fillColor=none;strokeColor=none;resizable=0;perimeter=centerPerimeter;rotatable=0;allowArrows=0;points=[];outlineConnect=1;" parent="1" vertex="1">
          <mxGeometry x="380" y="390" width="10" height="10" as="geometry" />
        </mxCell>
        <mxCell id="62pQtbpUNrZcGYcg5-YU-14" value="" style="rounded=0;orthogonalLoop=1;jettySize=auto;html=1;endArrow=halfCircle;endFill=0;endSize=6;strokeWidth=1;sketch=0;exitX=0.5;exitY=0;exitDx=0;exitDy=0;" parent="1" source="62pQtbpUNrZcGYcg5-YU-18" target="62pQtbpUNrZcGYcg5-YU-15" edge="1">
          <mxGeometry relative="1" as="geometry">
            <mxPoint x="415" y="420" as="sourcePoint" />
          </mxGeometry>
        </mxCell>
        <mxCell id="62pQtbpUNrZcGYcg5-YU-15" value="" style="ellipse;whiteSpace=wrap;html=1;align=center;aspect=fixed;fillColor=none;strokeColor=none;resizable=0;perimeter=centerPerimeter;rotatable=0;allowArrows=0;points=[];outlineConnect=1;" parent="1" vertex="1">
          <mxGeometry x="410" y="380" width="10" height="10" as="geometry" />
        </mxCell>
        <mxCell id="62pQtbpUNrZcGYcg5-YU-16" value="" style="rounded=0;orthogonalLoop=1;jettySize=auto;html=1;endArrow=oval;endFill=0;sketch=0;sourcePerimeterSpacing=0;targetPerimeterSpacing=0;endSize=10;exitX=0.25;exitY=1;exitDx=0;exitDy=0;" parent="1" target="62pQtbpUNrZcGYcg5-YU-15" edge="1">
          <mxGeometry relative="1" as="geometry">
            <mxPoint x="415" y="360" as="sourcePoint" />
          </mxGeometry>
        </mxCell>
        <mxCell id="62pQtbpUNrZcGYcg5-YU-17" value="Fluxo do parque" style="text;html=1;align=center;verticalAlign=middle;resizable=0;points=[];autosize=1;strokeColor=none;fillColor=none;" parent="1" vertex="1">
          <mxGeometry x="425" y="370" width="110" height="30" as="geometry" />
        </mxCell>
        <mxCell id="62pQtbpUNrZcGYcg5-YU-18" value="«component»&lt;br&gt;&lt;b&gt;Máquina&lt;/b&gt;" style="html=1;dropTarget=0;whiteSpace=wrap;" parent="1" vertex="1">
          <mxGeometry x="420" y="480" width="180" height="90" as="geometry" />
        </mxCell>
        <mxCell id="62pQtbpUNrZcGYcg5-YU-19" value="" style="shape=module;jettyWidth=8;jettyHeight=4;" parent="62pQtbpUNrZcGYcg5-YU-18" vertex="1">
          <mxGeometry x="1" width="20" height="20" relative="1" as="geometry">
            <mxPoint x="-27" y="7" as="offset" />
          </mxGeometry>
        </mxCell>
        <mxCell id="62pQtbpUNrZcGYcg5-YU-20" value="«component»&lt;br&gt;&lt;b&gt;Funcionário&lt;/b&gt;" style="html=1;dropTarget=0;whiteSpace=wrap;" parent="1" vertex="1">
          <mxGeometry x="190" y="480" width="180" height="90" as="geometry" />
        </mxCell>
        <mxCell id="62pQtbpUNrZcGYcg5-YU-21" value="" style="shape=module;jettyWidth=8;jettyHeight=4;" parent="62pQtbpUNrZcGYcg5-YU-20" vertex="1">
          <mxGeometry x="1" width="20" height="20" relative="1" as="geometry">
            <mxPoint x="-27" y="7" as="offset" />
          </mxGeometry>
        </mxCell>
        <mxCell id="KhUUDTllnbCr8EGWHRNt-1" value="&amp;lt;&amp;lt;device&amp;gt;&amp;gt;&lt;div&gt;:ParkServer (Linux)&lt;/div&gt;" style="verticalAlign=top;align=left;spacingTop=8;spacingLeft=2;spacingRight=12;shape=cube;size=10;direction=south;fontStyle=4;html=1;whiteSpace=wrap;" vertex="1" parent="1">
          <mxGeometry x="870" y="280" width="290" height="160" as="geometry" />
        </mxCell>
        <mxCell id="KhUUDTllnbCr8EGWHRNt-3" value="" style="rounded=0;orthogonalLoop=1;jettySize=auto;html=1;endArrow=oval;endFill=0;sketch=0;sourcePerimeterSpacing=0;targetPerimeterSpacing=0;endSize=10;exitX=0.75;exitY=1;exitDx=0;exitDy=0;" edge="1" parent="1" source="62pQtbpUNrZcGYcg5-YU-20">
          <mxGeometry relative="1" as="geometry">
            <mxPoint x="319.76" y="590" as="sourcePoint" />
            <mxPoint x="325" y="610" as="targetPoint" />
          </mxGeometry>
        </mxCell>
        <mxCell id="KhUUDTllnbCr8EGWHRNt-4" value="" style="ellipse;whiteSpace=wrap;html=1;align=center;aspect=fixed;fillColor=none;strokeColor=none;resizable=0;perimeter=centerPerimeter;rotatable=0;allowArrows=0;points=[];outlineConnect=1;" vertex="1" parent="1">
          <mxGeometry x="315" y="660" width="10" height="10" as="geometry" />
        </mxCell>
        <mxCell id="KhUUDTllnbCr8EGWHRNt-5" value="Tratar funcionário" style="text;html=1;align=center;verticalAlign=middle;resizable=0;points=[];autosize=1;strokeColor=none;fillColor=none;" vertex="1" parent="1">
          <mxGeometry x="270" y="610" width="120" height="30" as="geometry" />
        </mxCell>
        <mxCell id="KhUUDTllnbCr8EGWHRNt-6" value="Tratar máquina" style="text;html=1;align=center;verticalAlign=middle;resizable=0;points=[];autosize=1;strokeColor=none;fillColor=none;" vertex="1" parent="1">
          <mxGeometry x="510" y="610" width="100" height="30" as="geometry" />
        </mxCell>
        <mxCell id="KhUUDTllnbCr8EGWHRNt-7" value="" style="rounded=0;orthogonalLoop=1;jettySize=auto;html=1;endArrow=oval;endFill=0;sketch=0;sourcePerimeterSpacing=0;targetPerimeterSpacing=0;endSize=10;exitX=0.75;exitY=1;exitDx=0;exitDy=0;" edge="1" parent="1">
          <mxGeometry relative="1" as="geometry">
            <mxPoint x="555" y="570" as="sourcePoint" />
            <mxPoint x="555" y="610" as="targetPoint" />
          </mxGeometry>
        </mxCell>
        <mxCell id="KhUUDTllnbCr8EGWHRNt-8" value="«component»&lt;br&gt;&lt;b&gt;Parque&lt;/b&gt;" style="html=1;dropTarget=0;whiteSpace=wrap;" vertex="1" parent="1">
          <mxGeometry x="925" y="330" width="180" height="90" as="geometry" />
        </mxCell>
        <mxCell id="KhUUDTllnbCr8EGWHRNt-9" value="" style="shape=module;jettyWidth=8;jettyHeight=4;" vertex="1" parent="KhUUDTllnbCr8EGWHRNt-8">
          <mxGeometry x="1" width="20" height="20" relative="1" as="geometry">
            <mxPoint x="-27" y="7" as="offset" />
          </mxGeometry>
        </mxCell>
        <mxCell id="KhUUDTllnbCr8EGWHRNt-10" value="&amp;lt;&amp;lt;hardware&amp;gt;&amp;gt;&lt;div&gt;:Machine&lt;/div&gt;" style="verticalAlign=top;align=left;spacingTop=8;spacingLeft=2;spacingRight=12;shape=cube;size=10;direction=south;fontStyle=4;html=1;whiteSpace=wrap;" vertex="1" parent="1">
          <mxGeometry x="1290" y="270" width="290" height="170" as="geometry" />
        </mxCell>
        <mxCell id="KhUUDTllnbCr8EGWHRNt-11" value="«component»&lt;br&gt;&lt;b&gt;Máquina&lt;/b&gt;" style="html=1;dropTarget=0;whiteSpace=wrap;" vertex="1" parent="1">
          <mxGeometry x="1345" y="330" width="180" height="90" as="geometry" />
        </mxCell>
        <mxCell id="KhUUDTllnbCr8EGWHRNt-12" value="" style="shape=module;jettyWidth=8;jettyHeight=4;" vertex="1" parent="KhUUDTllnbCr8EGWHRNt-11">
          <mxGeometry x="1" width="20" height="20" relative="1" as="geometry">
            <mxPoint x="-27" y="7" as="offset" />
          </mxGeometry>
        </mxCell>
        <mxCell id="KhUUDTllnbCr8EGWHRNt-13" value="&amp;lt;&amp;lt;device&amp;gt;&amp;gt;&lt;div&gt;:EmployeeDBServer (Linux)&lt;/div&gt;" style="verticalAlign=top;align=left;spacingTop=8;spacingLeft=2;spacingRight=12;shape=cube;size=10;direction=south;fontStyle=4;html=1;whiteSpace=wrap;" vertex="1" parent="1">
          <mxGeometry x="860" y="560" width="290" height="170" as="geometry" />
        </mxCell>
        <mxCell id="KhUUDTllnbCr8EGWHRNt-14" value="«component»&lt;br&gt;&lt;b&gt;Funcionário&lt;/b&gt;" style="html=1;dropTarget=0;whiteSpace=wrap;" vertex="1" parent="1">
          <mxGeometry x="925" y="610" width="180" height="90" as="geometry" />
        </mxCell>
        <mxCell id="KhUUDTllnbCr8EGWHRNt-15" value="" style="shape=module;jettyWidth=8;jettyHeight=4;" vertex="1" parent="KhUUDTllnbCr8EGWHRNt-14">
          <mxGeometry x="1" width="20" height="20" relative="1" as="geometry">
            <mxPoint x="-27" y="7" as="offset" />
          </mxGeometry>
        </mxCell>
        <mxCell id="KhUUDTllnbCr8EGWHRNt-17" value="" style="endArrow=none;html=1;rounded=0;exitX=0;exitY=0;exitDx=0;exitDy=140;exitPerimeter=0;entryX=0;entryY=0;entryDx=160;entryDy=150;entryPerimeter=0;" edge="1" parent="1" source="KhUUDTllnbCr8EGWHRNt-13" target="KhUUDTllnbCr8EGWHRNt-1">
          <mxGeometry width="50" height="50" relative="1" as="geometry">
            <mxPoint x="1000" y="520" as="sourcePoint" />
            <mxPoint x="1050" y="470" as="targetPoint" />
          </mxGeometry>
        </mxCell>
        <mxCell id="KhUUDTllnbCr8EGWHRNt-18" value="" style="endArrow=none;html=1;rounded=0;entryX=0;entryY=0;entryDx=90;entryDy=290;entryPerimeter=0;exitX=0.5;exitY=0;exitDx=0;exitDy=0;exitPerimeter=0;" edge="1" parent="1" source="KhUUDTllnbCr8EGWHRNt-1" target="KhUUDTllnbCr8EGWHRNt-10">
          <mxGeometry width="50" height="50" relative="1" as="geometry">
            <mxPoint x="1170" y="360" as="sourcePoint" />
            <mxPoint x="1270" y="359.47" as="targetPoint" />
          </mxGeometry>
        </mxCell>
        <mxCell id="KhUUDTllnbCr8EGWHRNt-19" value="&lt;font style=&quot;font-size: 12px;&quot;&gt;&amp;lt;&amp;lt;ethernet&amp;gt;&amp;gt;&lt;/font&gt;" style="text;html=1;align=center;verticalAlign=middle;resizable=0;points=[];autosize=1;strokeColor=none;fillColor=none;" vertex="1" parent="1">
          <mxGeometry x="1175" y="330" width="100" height="30" as="geometry" />
        </mxCell>
        <mxCell id="KhUUDTllnbCr8EGWHRNt-20" value="&lt;font style=&quot;font-size: 12px;&quot;&gt;&amp;lt;&amp;lt;ethernet&amp;gt;&amp;gt;&lt;/font&gt;" style="text;html=1;align=center;verticalAlign=middle;resizable=0;points=[];autosize=1;strokeColor=none;fillColor=none;" vertex="1" parent="1">
          <mxGeometry x="1005" y="480" width="100" height="30" as="geometry" />
        </mxCell>
      </root>
    </mxGraphModel>
  </diagram>
</mxfile>
